#!OML:ASF I:\Actors\actors\Patient Classification 1\Patient 1\Session 1\Subject1.ASF
:FULLY-SPECIFIED
:DEGREES
392
root -0.785158 17.5802 7.50864 8.02217 -10.0448 -8.8879
lowerback 4.89348 -1.86401 3.6974
upperback -7.33229 -1.96688 2.2265
thorax -10.6292 -1.14854 0.59663
lowerneck -11.6244 1.29726 2.98229
upperneck 18.6062 -1.1521 11.2887
head 7.75965 0.699408 3.11963
rclavicle 3.8266e-014 1.74931e-014
rhumerus 31.5346 76.3769 -48.3575
rradius 122.204
rwrist -34.0558
rhand -2.96456 -61.2633
rfingers 7.12502
rthumb 22.748 -89.9422
lclavicle 3.8266e-014 1.74931e-014
lhumerus 17.6541 1.68622 76.1045
lradius 62.0887
lwrist 62.6378
lhand -5.33178 4.88066
lfingers 7.12502
lthumb 20.4746 33.8211
rfemur -3.40151 22.8039 26.6251
rtibia 2.28481
rfoot -10.3111 -12.0203
rtoes -3.4163
lfemur 9.52671 -40.4297 -14.4568
ltibia -3.8648
lfoot -27.1339 52.8609
ltoes 15.841
393
root -0.780978 17.5813 7.51812 8.06729 -10.0339 -8.93212
lowerback 4.62002 -1.79535 3.7742
upperback -7.27592 -1.88246 2.23594
thorax -10.4016 -1.11196 0.538831
lowerneck -11.6484 1.23283 2.80064
upperneck 18.0889 -1.16931 11.4031
head 7.59361 0.6666 3.17321
rclavicle 2.88238e-015 6.75868e-015
rhumerus 32.01 76.2888 -48.1136
rradius 122.117
rwrist -34.0528
rhand -3.18557 -61.5122
rfingers 7.12502
rthumb 22.5359 -269.783
lclavicle 2.88238e-015 6.75868e-015
lhumerus 17.797 2.09843 76.456
lradius 62.2392
lwrist 62.3712
lhand -4.81151 3.9385
lfingers 7.12502
lthumb 20.9745 32.8244
rfemur -3.35663 22.6782 26.7039
rtibia 2.19756
rfoot -10.2673 -12.0774
rtoes -3.72971
lfemur 8.91679 -39.0528 -13.8522
ltibia -3.63379
lfoot -25.4603 51.7202
ltoes 14.3627
394
root -0.776687 17.5832 7.52703 8.13669 -9.93775 -8.88256
lowerback 4.36203 -1.71422 4.0328
upperback -7.27019 -1.77982 2.03959
thorax -10.2545 -1.09056 0.161105
lowerneck -11.6155 1.1769 2.82811
upperneck 17.6297 -1.21425 11.4949
head 7.44023 0.633571 3.18272
rclavicle -2.4699e-014 3.97569e-015
rhumerus 26.9782 75.8636 -53.7397
rradius 121.45
rwrist -33.2727
rhand -2.5241 -61.2743
rfingers 7.12502
rthumb 23.1706 -89.9007
lclavicle -2.4699e-014 3.97569e-015
lhumerus 18.0014 2.26954 76.5797
lradius 62.2919
lwrist 62.3481
lhand -4.81761 3.48464
lfingers 7.12502
lthumb 20.9686 32.3712
rfemur -3.3681 22.6478 26.6706
rtibia 2.16804
rfoot -10.3554 -12.258
rtoes -3.84834
lfemur 8.33656 -37.9265 -13.4215
ltibia -3.41018
lfoot -23.7702 50.7715
ltoes 12.5251
395
root -0.771414 17.5864 7.51688 8.10943 -9.93469 -8.62138
lowerback 4.57612 -1.59038 3.93631
upperback -7.36817 -1.62263 1.85016
thorax -10.4899 -1.01816 0.00152098
lowerneck -11.6831 1.13871 2.84847
upperneck 17.4619 -1.26136 11.528
head 7.4005 0.610378 3.18259
rclavicle -7.45443e-016 -2.78299e-015
rhumerus 27.8578 75.6413 -53.4535
rradius 121.08
rwrist -33.1159
rhand -2.48223 -61.1651
rfingers 7.12502
rthumb 23.2108 -89.7865
lclavicle -7.45443e-016 -2.78299e-015
lhumerus 18.1386 2.37378 76.699
lradius 62.3368
lwrist 62.3557
lhand -5.38271 3.42686
lfingers 7.12502
lthumb 20.4257 32.3726
rfemur -3.52947 22.8313 26.3319
rtibia 2.3279
rfoot -10.4533 -12.5294
rtoes -3.85175
lfemur 7.86408 -37.1509 -13.3117
ltibia -3.23902
lfoot -22.6528 50.1186
ltoes 11.3933
396
root -0.76942 17.5922 7.51348 8.16331 -9.73605 -8.45752
lowerback 4.53448 -1.49068 3.92716
upperback -7.45517 -1.49969 1.7194
thorax -10.5615 -0.965589 -0.149016
lowerneck -11.5571 1.22694 3.05799
upperneck 17.2501 -1.09888 11.2939
head 7.29886 0.668372 3.0789
rclavicle 4.42793e-014 -1.07344e-014
rhumerus 29.3678 75.4087 -52.5033
rradius 120.7
rwrist -33.0811
rhand -2.46848 -61.0916
rfingers 7.12502
rthumb 23.224 -89.7112
lclavicle 4.42793e-014 -1.07344e-014
lhumerus 18.3246 2.4532 76.838
lradius 62.365
lwrist 62.2225
lhand -6.53792 3.52466
lfingers 7.12502
lthumb 19.3152 32.5854
rfemur -3.72223 22.7129 26.0977
rtibia 2.46057
rfoot -10.4766 -12.6595
rtoes -4.10993
lfemur 7.43394 -36.7125 -13.1244
ltibia -3.19418
lfoot -21.9194 49.5794
ltoes 10.7313
397
root -0.768459 17.5961 7.53098 8.25969 -9.32431 -8.32889
lowerback 4.08076 -1.4351 4.0008
upperback -7.50855 -1.44653 1.65447
thorax -10.3499 -0.947788 -0.278803
lowerneck -11.1075 1.54585 3.71884
upperneck 16.9592 -0.562944 10.4911
head 7.09674 0.872397 2.74236
rclavicle -3.05631e-014 2.3059e-014
rhumerus 31.4899 75.1764 -50.9211
rradius 120.373
rwrist -33.1867
rhand -2.54435 -61.1245
rfingers 7.12502
rthumb 23.1512 -89.7534
lclavicle -3.05631e-014 2.3059e-014
lhumerus 18.4622 2.6543 77.0463
lradius 62.345
lwrist 62.0311
lhand -7.63536 3.65652
lfingers 7.12502
lthumb 18.2597 32.8195
rfemur -3.77532 22.2159 25.9481
rtibia 2.47585
rfoot -10.5563 -12.6052
rtoes -4.39868
lfemur 7.2752 -36.8769 -13.1855
ltibia -3.25929
lfoot -21.6775 49.4072
ltoes 10.3859
398
root -0.766907 17.5981 7.53709 8.29521 -8.94822 -8.32074
lowerback 3.89038 -1.35778 4.12069
upperback -7.57697 -1.33726 1.67635
thorax -10.3115 -0.903486 -0.339982
lowerneck -11.0259 1.6671 3.92358
upperneck 16.9621 -0.336791 10.022
head 7.07263 0.95264 2.57464
rclavicle 2.5345e-015 -2.98177e-014
rhumerus 34.2716 74.9443 -48.7493
rradius 120.157
rwrist -33.4785
rhand -2.80691 -61.3085
rfingers 7.12502
rthumb 22.8993 -89.9688
lclavicle 2.5345e-015 -2.98177e-014
lhumerus 18.6108 3.02284 77.3332
lradius 62.2712
lwrist 61.9942
lhand -8.17087 3.63248
lfingers 7.12502
lthumb 17.7444 32.8429
rfemur -3.87382 21.9422 25.9413
rtibia 2.6422
rfoot -10.705 -12.7054
rtoes -4.46996
lfemur 7.2205 -37.3047 -13.1867
ltibia -3.30257
lfoot -21.6944 49.4955
ltoes 10.2716
399
root -0.766542 17.5979 7.53719 8.23467 -8.50828 -8.45887
lowerback 3.88841 -1.25842 4.41642
upperback -7.62387 -1.17019 1.7176
thorax -10.3656 -0.844388 -0.481022
lowerneck -11.078 1.8043 4.13908
upperneck 17.1398 -0.119903 9.56187
head 7.13164 1.04143 2.41327
rclavicle 7.20594e-015 -4.8901e-014
rhumerus 37.1342 74.5995 -46.5904
rradius 120.005
rwrist -33.7911
rhand -3.01722 -61.3809
rfingers 7.12502
rthumb 22.6974 -269.934
lclavicle 7.20594e-015 -4.8901e-014
lhumerus 18.8502 3.38004 77.6288
lradius 62.2761
lwrist 62.3273
lhand -8.37701 3.86253
lfingers 7.12502
lthumb 17.5461 33.0907
rfemur -3.86472 21.8046 26.1692
rtibia 2.83091
rfoot -10.8453 -13.0049
rtoes -4.84924
lfemur 7.24366 -37.6753 -13.0247
ltibia -3.3353
lfoot -21.4455 49.532
ltoes 9.89288
400
root -0.768478 17.5956 7.54007 8.08898 -7.91748 -8.64921
lowerback 3.90806 -1.14593 4.86016
upperback -7.65239 -0.974105 1.71759
thorax -10.4152 -0.784667 -0.75245
lowerneck -11.2209 1.93529 4.35635
upperneck 17.5206 0.053196 9.15339
head 7.27672 1.12465 2.27032
rclavicle 7.50412e-015 -6.75868e-015
rhumerus 39.2529 74.1233 -45.1791
rradius 119.871
rwrist -33.862
rhand -2.84852 -61.2032
rfingers 7.12502
rthumb 22.8593 -449.868
lclavicle 7.50412e-015 -6.75868e-015
lhumerus 19.1597 3.55362 77.872
lradius 62.3434
lwrist 62.9409
lhand -8.83915 4.30289
lfingers 7.12502
lthumb 17.1013 33.5702
rfemur -3.72655 21.6415 26.5258
rtibia 3.03536
rfoot -11.074 -13.4074
rtoes -5.17325
lfemur 7.37039 -38.0199 -12.8219
ltibia -3.41867
lfoot -20.98 49.4467
ltoes 9.37908
401
root -0.774861 17.5922 7.54731 7.90525 -7.18179 -8.77366
lowerback 3.88031 -1.02467 5.23537
upperback -7.71011 -0.776147 1.69309
thorax -10.4648 -0.720526 -1.01266
lowerneck -11.2672 2.08342 4.72714
upperneck 18.0258 0.23837 8.64733
head 7.44859 1.21746 2.07247
rclavicle -1.00883e-014 2.50469e-014
rhumerus 40.6359 73.6007 -44.3863
rradius 119.832
rwrist -33.7773
rhand -2.50235 -60.9816
rfingers 7.12502
rthumb 23.1915 -449.605
lclavicle -1.00883e-014 2.50469e-014
lhumerus 19.4488 3.53616 78.1338
lradius 62.3797
lwrist 63.2337
lhand -9.56956 4.44523
lfingers 7.12502
lthumb 16.3981 33.7721
rfemur -3.52659 21.4483 26.837
rtibia 3.23657
rfoot -11.4264 -13.8535
rtoes -4.6933
lfemur 7.49828 -38.2666 -12.6437
ltibia -3.53775
lfoot -20.232 49.1791
ltoes 8.51411
